<svg width="392" height="52" viewBox="0 0 392 52" fill="none" xmlns="http://www.w3.org/2000/svg">
<path d="M36.6639 49.9962H3.33308C1.49989 49.9962 0 48.4963 0 46.6631V3.33308C0 1.49989 1.49989 0 3.33308 0H36.6639C38.4971 0 39.997 1.49989 39.997 3.33308V46.6631C39.997 48.4963 38.4971 49.9962 36.6639 49.9962Z" fill="url(#paint0_linear_37_1167)"/>
<path d="M3.33301 4.99963H14.9988V6.66617H3.33301V4.99963Z" fill="#BDBDBD"/>
<path d="M3.33301 9.99927H34.9973V11.6658H3.33301V9.99927Z" fill="#BDBDBD"/>
<path d="M3.33301 14.9989H34.9973V16.6654H3.33301V14.9989Z" fill="#BDBDBD"/>
<path d="M3.33301 19.9985H34.9973V21.6651H3.33301V19.9985Z" fill="#BDBDBD"/>
<path d="M3.33301 24.9982H34.9973V26.6647H3.33301V24.9982Z" fill="#BDBDBD"/>
<path d="M3.33301 29.9978H26.6646V31.6643H3.33301V29.9978Z" fill="#BDBDBD"/>
<path d="M3.33301 34.9974H23.3315V36.6639H3.33301V34.9974Z" fill="#BDBDBD"/>
<path d="M3.33301 39.997H11.6657V41.6636H3.33301V39.997Z" fill="#BDBDBD"/>
<path opacity="0.2" d="M36.6639 1.24991C37.8138 1.24991 38.7471 2.18317 38.7471 3.33308V46.6631C38.7471 47.8131 37.8138 48.7463 36.6639 48.7463H3.33308C2.18317 48.7463 1.24991 47.8131 1.24991 46.6631V3.33308C1.24991 2.18317 2.18317 1.24991 3.33308 1.24991H36.6639ZM36.6639 0H3.33308C1.49989 0 0 1.49989 0 3.33308V46.6631C0 48.4963 1.49989 49.9962 3.33308 49.9962H36.6639C38.4971 49.9962 39.997 48.4963 39.997 46.6631V3.33308C39.997 1.49989 38.4971 0 36.6639 0Z" fill="#424242"/>
<path d="M13.394 40.0595L15.2813 35.0223L16.5812 31.5559C16.8729 30.6602 17.3728 29.8477 18.0395 29.1811L21.0392 26.1813L28.8178 33.9599L25.818 36.9597C25.1514 37.6263 24.339 38.1263 23.4432 38.4179L19.9768 39.7178L14.9397 41.6052C13.9856 41.9135 13.0815 41.0094 13.394 40.0595Z" fill="url(#paint1_linear_37_1167)"/>
<path opacity="0.2" d="M21.0363 27.9479L27.0442 33.9557L24.9277 36.0723C24.4027 36.5972 23.7528 36.9972 23.0486 37.2263L22.9986 37.243L19.5322 38.5429L14.6034 40.3886L16.4491 35.4598L17.749 31.9934L17.7657 31.9434C17.9949 31.2393 18.3948 30.5893 18.9198 30.0644L21.0363 27.9479ZM21.0363 26.1813L18.0365 29.1811C17.3699 29.8477 16.8699 30.6602 16.5783 31.5559L15.2784 35.0223L13.391 40.0595C13.1244 40.8802 13.7577 41.6635 14.5451 41.6635C14.6701 41.6635 14.7993 41.6427 14.9326 41.601L19.9697 39.7136L23.4361 38.4137C24.3319 38.1221 25.1443 37.6221 25.8109 36.9555L28.8107 33.9557L21.0363 26.1813Z" fill="#424242"/>
<path d="M13.394 40.0594L15.2813 35.0223C16.2646 35.5098 17.1937 36.1639 18.0103 36.9847C18.8311 37.8054 19.481 38.7304 19.9727 39.7136L14.9355 41.601C13.9856 41.9135 13.0815 41.0094 13.394 40.0594Z" fill="url(#paint2_linear_37_1167)"/>
<path opacity="0.2" d="M15.9271 36.8555C16.3562 37.1555 16.7562 37.493 17.127 37.8638C17.4978 38.2346 17.8353 38.6345 18.1353 39.0637L14.6022 40.3886L15.9271 36.8555ZM15.2813 35.0223L13.394 40.0594C13.1273 40.8802 13.7606 41.6635 14.548 41.6635C14.673 41.6635 14.8022 41.6426 14.9355 41.601L19.9726 39.7136C19.4852 38.7304 18.8311 37.8013 18.0103 36.9847C17.1937 36.1639 16.2646 35.5098 15.2813 35.0223Z" fill="#424242"/>
<path d="M35.4512 11.7657L43.2298 19.5443L45.8212 16.9487L38.0468 9.17426L35.4512 11.7657Z" fill="url(#paint3_linear_37_1167)"/>
<path d="M44.0928 18.6816L36.3153 10.9041L37.1784 10.0409L44.956 17.8184L44.0928 18.6816Z" fill="#9E9E9E"/>
<path d="M38.0479 9.17432L45.8264 16.9529L49.2845 13.4948C50.2386 12.5407 50.2386 10.9908 49.2845 10.0368L44.964 5.71624C44.0099 4.76215 42.46 4.76215 41.5059 5.71624L38.0479 9.17432Z" fill="url(#paint4_linear_37_1167)"/>
<path d="M40.926 17.2361L37.7555 14.0656L21.7567 30.0643L21.7275 30.6893C21.6692 32.035 22.9566 33.3224 24.2981 33.2599L24.9231 33.2308L40.926 17.2361Z" fill="url(#paint5_linear_37_1167)"/>
<path d="M43.2292 19.5444L26.5179 36.2556C25.5805 35.864 24.8556 34.8807 24.8972 33.8641L24.9264 33.2392L40.9252 17.2404L43.2292 19.5444Z" fill="url(#paint6_linear_37_1167)"/>
<path d="M37.7594 14.0698L21.7606 30.0686L21.1356 30.0977C20.119 30.1436 19.1358 29.4144 18.7441 28.477L35.4554 11.7658L37.7594 14.0698Z" fill="url(#paint7_linear_37_1167)"/>
<path opacity="0.2" d="M43.2301 6.24954C43.5509 6.24954 43.8508 6.37453 44.0758 6.59951L48.3963 10.92C48.6213 11.145 48.7463 11.445 48.7463 11.7658C48.7463 12.0866 48.6213 12.3866 48.3963 12.6116L26.3938 34.6141C26.2355 34.3974 26.1397 34.1474 26.148 33.9183L26.1772 33.2933L26.2355 31.9309L24.8731 31.9893L24.2482 32.0184H24.2148C23.9273 32.0184 23.6024 31.8601 23.3524 31.5976C23.1066 31.3435 22.9691 31.0227 22.9816 30.7477L23.0107 30.1227L23.0691 28.7603L21.7067 28.8187L21.0817 28.8478H21.0484C20.8276 28.8478 20.5901 28.7562 20.3859 28.602L42.3885 6.59951C42.6134 6.37453 42.9134 6.24954 43.2301 6.24954ZM43.2301 4.99963C42.6051 4.99963 41.9801 5.23712 41.501 5.71625L18.7402 28.477C19.1235 29.3895 20.061 30.0977 21.0442 30.0977H21.1317L21.7567 30.0686L21.7317 30.6935C21.6733 32.0101 22.9024 33.2683 24.2148 33.2683H24.3023L24.9273 33.2392L24.8981 33.8641C24.8523 34.8807 25.5814 35.864 26.5188 36.2556L49.2796 13.4948C50.2337 12.5407 50.2337 10.9908 49.2796 10.0368L44.9591 5.71625C44.4841 5.23712 43.855 4.99963 43.2301 4.99963Z" fill="#424242"/>
<path d="M84.3295 19.7367H75.8068C75.6932 18.8617 75.4602 18.072 75.108 17.3674C74.7557 16.6629 74.2898 16.0606 73.7102 15.5606C73.1307 15.0606 72.4432 14.6799 71.6477 14.4186C70.8636 14.1458 69.9943 14.0095 69.0398 14.0095C67.3466 14.0095 65.8864 14.4242 64.6591 15.2538C63.4432 16.0833 62.5057 17.2822 61.8466 18.8504C61.1989 20.4186 60.875 22.3163 60.875 24.5436C60.875 26.8617 61.2045 28.8049 61.8636 30.3731C62.5341 31.9299 63.4716 33.1061 64.6761 33.9015C65.892 34.6856 67.3295 35.0777 68.9886 35.0777C69.9205 35.0777 70.767 34.9583 71.5284 34.7197C72.3011 34.4811 72.9773 34.1345 73.5568 33.6799C74.1477 33.214 74.6307 32.6515 75.0057 31.9924C75.392 31.322 75.6591 30.5663 75.8068 29.7254L84.3295 29.7765C84.1818 31.322 83.733 32.8447 82.983 34.3447C82.2443 35.8447 81.2273 37.214 79.9318 38.4527C78.6364 39.6799 77.0568 40.6572 75.1932 41.3845C73.3409 42.1117 71.2159 42.4754 68.8182 42.4754C65.6591 42.4754 62.8295 41.7822 60.3295 40.3958C57.8409 38.9981 55.875 36.964 54.4318 34.2936C52.9886 31.6231 52.267 28.3731 52.267 24.5436C52.267 20.7027 53 17.447 54.4659 14.7765C55.9318 12.1061 57.9148 10.0777 60.4148 8.69129C62.9148 7.30492 65.7159 6.61174 68.8182 6.61174C70.9318 6.61174 72.8864 6.9072 74.6818 7.49811C76.4773 8.07765 78.0568 8.92992 79.4205 10.0549C80.7841 11.1686 81.892 12.5379 82.7443 14.1629C83.5966 15.7879 84.125 17.6458 84.3295 19.7367ZM88.7977 41.9981V15.8163H96.8943V20.589H97.167C97.6443 18.8617 98.4227 17.5777 99.5022 16.7367C100.582 15.8845 101.837 15.4583 103.269 15.4583C103.656 15.4583 104.053 15.4867 104.462 15.5436C104.872 15.589 105.252 15.6629 105.604 15.7652V23.0095C105.207 22.8731 104.684 22.7652 104.036 22.6856C103.4 22.6061 102.832 22.5663 102.332 22.5663C101.343 22.5663 100.451 22.7879 99.6556 23.2311C98.8715 23.6629 98.2522 24.2708 97.7977 25.0549C97.3545 25.8277 97.1329 26.7367 97.1329 27.7822V41.9981H88.7977ZM108.641 41.9981V15.8163H116.976V41.9981H108.641ZM112.817 12.7652C111.646 12.7652 110.641 12.3788 109.8 11.6061C108.959 10.822 108.539 9.87879 108.539 8.77652C108.539 7.68561 108.959 6.75379 109.8 5.98106C110.641 5.19697 111.646 4.80492 112.817 4.80492C113.999 4.80492 115.004 5.19697 115.834 5.98106C116.675 6.75379 117.095 7.68561 117.095 8.77652C117.095 9.87879 116.675 10.822 115.834 11.6061C115.004 12.3788 113.999 12.7652 112.817 12.7652ZM136.7 15.8163V21.9527H120.183V15.8163H136.7ZM123.643 9.54356H131.978V33.7652C131.978 34.2765 132.058 34.6913 132.217 35.0095C132.387 35.3163 132.632 35.5379 132.95 35.6742C133.268 35.7992 133.649 35.8617 134.092 35.8617C134.41 35.8617 134.745 35.8333 135.098 35.7765C135.461 35.7083 135.734 35.6515 135.916 35.6061L137.177 41.6231C136.779 41.7367 136.217 41.8788 135.49 42.0492C134.774 42.2197 133.916 42.3277 132.916 42.3731C130.961 42.464 129.285 42.2367 127.887 41.6913C126.501 41.1345 125.438 40.2708 124.7 39.1004C123.973 37.9299 123.62 36.4583 123.643 34.6856V9.54356ZM140.593 41.9981V15.8163H148.928V41.9981H140.593ZM144.769 12.7652C143.598 12.7652 142.593 12.3788 141.752 11.6061C140.911 10.822 140.49 9.87879 140.49 8.77652C140.49 7.68561 140.911 6.75379 141.752 5.98106C142.593 5.19697 143.598 4.80492 144.769 4.80492C145.951 4.80492 146.956 5.19697 147.786 5.98106C148.627 6.75379 149.047 7.68561 149.047 8.77652C149.047 9.87879 148.627 10.822 147.786 11.6061C146.956 12.3788 145.951 12.7652 144.769 12.7652ZM170.97 51.8163V37.7538H170.799C170.447 38.5606 169.947 39.3163 169.299 40.0208C168.652 40.7254 167.839 41.2936 166.862 41.7254C165.896 42.1572 164.754 42.3731 163.436 42.3731C161.504 42.3731 159.748 41.8731 158.169 40.8731C156.589 39.8731 155.328 38.3731 154.385 36.3731C153.441 34.3731 152.97 31.8902 152.97 28.9242C152.97 25.8447 153.459 23.3106 154.436 21.322C155.413 19.3333 156.691 17.8617 158.271 16.9072C159.862 15.9527 161.572 15.4754 163.402 15.4754C164.777 15.4754 165.953 15.714 166.93 16.1913C167.907 16.6572 168.714 17.2595 169.351 17.9981C169.987 18.7367 170.47 19.5038 170.799 20.2992H171.055V15.8163H179.305V51.8163H170.97ZM166.334 35.8788C167.345 35.8788 168.209 35.5947 168.924 35.0265C169.64 34.447 170.191 33.6345 170.578 32.589C170.964 31.5436 171.157 30.3163 171.157 28.9072C171.157 27.4754 170.964 26.2424 170.578 25.2083C170.203 24.1742 169.652 23.3788 168.924 22.822C168.209 22.2652 167.345 21.9867 166.334 21.9867C165.299 21.9867 164.424 22.2708 163.709 22.839C162.993 23.4072 162.447 24.2083 162.072 25.2424C161.709 26.2765 161.527 27.4981 161.527 28.9072C161.527 30.3163 161.714 31.5436 162.089 32.589C162.464 33.6345 163.004 34.447 163.709 35.0265C164.424 35.5947 165.299 35.8788 166.334 35.8788ZM201.108 30.697V15.8163H209.427V41.9981H201.483V37.1231H201.211C200.631 38.7254 199.643 39.9981 198.245 40.9413C196.858 41.8731 195.182 42.339 193.216 42.339C191.432 42.339 189.864 41.9299 188.512 41.1117C187.16 40.2936 186.108 39.1515 185.358 37.6856C184.608 36.2083 184.228 34.4811 184.216 32.5038V15.8163H192.552V30.8674C192.563 32.2879 192.938 33.4072 193.677 34.2254C194.415 35.0436 195.421 35.4527 196.694 35.4527C197.523 35.4527 198.268 35.2708 198.927 34.9072C199.597 34.5322 200.126 33.9924 200.512 33.2879C200.91 32.572 201.108 31.7083 201.108 30.697ZM226.611 42.4924C223.872 42.4924 221.508 41.9527 219.52 40.8731C217.542 39.7822 216.02 38.2311 214.952 36.2197C213.895 34.197 213.366 31.7936 213.366 29.0095C213.366 26.3049 213.9 23.9413 214.969 21.9186C216.037 19.8845 217.542 18.3049 219.486 17.1799C221.429 16.0436 223.719 15.4754 226.355 15.4754C228.219 15.4754 229.923 15.7652 231.469 16.3447C233.014 16.9242 234.349 17.7822 235.474 18.9186C236.599 20.0549 237.474 21.4583 238.099 23.1288C238.724 24.7879 239.037 26.6913 239.037 28.839V30.9186H216.281V26.0777H231.281C231.27 25.1913 231.06 24.4015 230.65 23.7083C230.241 23.0152 229.679 22.4754 228.963 22.089C228.258 21.6913 227.446 21.4924 226.525 21.4924C225.594 21.4924 224.758 21.7027 224.02 22.1231C223.281 22.5322 222.696 23.0947 222.264 23.8106C221.832 24.5152 221.605 25.3163 221.582 26.214V31.1402C221.582 32.2083 221.792 33.1458 222.213 33.9527C222.633 34.7481 223.23 35.3674 224.003 35.8106C224.775 36.2538 225.696 36.4754 226.764 36.4754C227.503 36.4754 228.173 36.3731 228.775 36.1686C229.378 35.964 229.895 35.6629 230.327 35.2652C230.758 34.8674 231.082 34.3788 231.298 33.7992L238.952 34.0208C238.633 35.7367 237.935 37.2311 236.855 38.5038C235.787 39.7652 234.383 40.7481 232.645 41.4527C230.906 42.1458 228.895 42.4924 226.611 42.4924ZM274.621 19.7367H266.099C265.985 18.8617 265.752 18.072 265.4 17.3674C265.048 16.6629 264.582 16.0606 264.002 15.5606C263.423 15.0606 262.735 14.6799 261.94 14.4186C261.156 14.1458 260.286 14.0095 259.332 14.0095C257.638 14.0095 256.178 14.4242 254.951 15.2538C253.735 16.0833 252.798 17.2822 252.138 18.8504C251.491 20.4186 251.167 22.3163 251.167 24.5436C251.167 26.8617 251.496 28.8049 252.156 30.3731C252.826 31.9299 253.763 33.1061 254.968 33.9015C256.184 34.6856 257.621 35.0777 259.281 35.0777C260.212 35.0777 261.059 34.9583 261.82 34.7197C262.593 34.4811 263.269 34.1345 263.849 33.6799C264.44 33.214 264.923 32.6515 265.298 31.9924C265.684 31.322 265.951 30.5663 266.099 29.7254L274.621 29.7765C274.474 31.322 274.025 32.8447 273.275 34.3447C272.536 35.8447 271.519 37.214 270.224 38.4527C268.928 39.6799 267.349 40.6572 265.485 41.3845C263.633 42.1117 261.508 42.4754 259.11 42.4754C255.951 42.4754 253.121 41.7822 250.621 40.3958C248.133 38.9981 246.167 36.964 244.724 34.2936C243.281 31.6231 242.559 28.3731 242.559 24.5436C242.559 20.7027 243.292 17.447 244.758 14.7765C246.224 12.1061 248.207 10.0777 250.707 8.69129C253.207 7.30492 256.008 6.61174 259.11 6.61174C261.224 6.61174 263.178 6.9072 264.974 7.49811C266.769 8.07765 268.349 8.92992 269.712 10.0549C271.076 11.1686 272.184 12.5379 273.036 14.1629C273.888 15.7879 274.417 17.6458 274.621 19.7367ZM287.209 27.0663V41.9981H278.874V7.08902H286.936V20.6231H287.226C287.817 19.0095 288.783 17.7481 290.124 16.839C291.476 15.9299 293.129 15.4754 295.084 15.4754C296.925 15.4754 298.527 15.8845 299.891 16.7027C301.254 17.5095 302.311 18.6515 303.061 20.1288C303.822 21.6061 304.197 23.3333 304.186 25.3106V41.9981H295.851V26.947C295.862 25.4924 295.499 24.3561 294.76 23.5379C294.021 22.7197 292.982 22.3106 291.641 22.3106C290.766 22.3106 289.993 22.5038 289.322 22.8902C288.663 23.2652 288.146 23.8049 287.771 24.5095C287.408 25.214 287.22 26.0663 287.209 27.0663ZM321.268 42.4924C318.529 42.4924 316.166 41.9527 314.177 40.8731C312.2 39.7822 310.677 38.2311 309.609 36.2197C308.552 34.197 308.023 31.7936 308.023 29.0095C308.023 26.3049 308.558 23.9413 309.626 21.9186C310.694 19.8845 312.2 18.3049 314.143 17.1799C316.086 16.0436 318.376 15.4754 321.012 15.4754C322.876 15.4754 324.58 15.7652 326.126 16.3447C327.671 16.9242 329.006 17.7822 330.131 18.9186C331.256 20.0549 332.131 21.4583 332.756 23.1288C333.381 24.7879 333.694 26.6913 333.694 28.839V30.9186H310.938V26.0777H325.938C325.927 25.1913 325.717 24.4015 325.308 23.7083C324.898 23.0152 324.336 22.4754 323.62 22.089C322.916 21.6913 322.103 21.4924 321.183 21.4924C320.251 21.4924 319.416 21.7027 318.677 22.1231C317.938 22.5322 317.353 23.0947 316.921 23.8106C316.489 24.5152 316.262 25.3163 316.239 26.214V31.1402C316.239 32.2083 316.45 33.1458 316.87 33.9527C317.291 34.7481 317.887 35.3674 318.66 35.8106C319.433 36.2538 320.353 36.4754 321.421 36.4754C322.16 36.4754 322.83 36.3731 323.433 36.1686C324.035 35.964 324.552 35.6629 324.984 35.2652C325.416 34.8674 325.739 34.3788 325.955 33.7992L333.609 34.0208C333.291 35.7367 332.592 37.2311 331.512 38.5038C330.444 39.7652 329.041 40.7481 327.302 41.4527C325.563 42.1458 323.552 42.4924 321.268 42.4924ZM349.813 42.4924C347.051 42.4924 344.682 41.9242 342.705 40.7879C340.739 39.6515 339.227 38.072 338.171 36.0492C337.114 34.0152 336.585 31.6629 336.585 28.9924C336.585 26.3106 337.114 23.9583 338.171 21.9356C339.239 19.9015 340.756 18.3163 342.722 17.1799C344.699 16.0436 347.057 15.4754 349.796 15.4754C352.216 15.4754 354.324 15.9129 356.119 16.7879C357.926 17.6629 359.335 18.9015 360.347 20.5038C361.369 22.0947 361.909 23.964 361.966 26.1117H354.176C354.017 24.7708 353.563 23.7197 352.813 22.9583C352.074 22.197 351.108 21.8163 349.915 21.8163C348.949 21.8163 348.102 22.089 347.375 22.6345C346.648 23.1686 346.08 23.964 345.671 25.0208C345.273 26.0663 345.074 27.3617 345.074 28.9072C345.074 30.4527 345.273 31.7595 345.671 32.8277C346.08 33.8845 346.648 34.6856 347.375 35.2311C348.102 35.7652 348.949 36.0322 349.915 36.0322C350.688 36.0322 351.369 35.8674 351.96 35.5379C352.563 35.2083 353.057 34.7254 353.443 34.089C353.83 33.4413 354.074 32.6572 354.176 31.7367H361.966C361.887 33.8958 361.347 35.7822 360.347 37.3958C359.358 39.0095 357.966 40.2652 356.171 41.1629C354.387 42.0492 352.267 42.4924 349.813 42.4924ZM373.389 35.1288L373.423 25.1913H374.582L381.946 15.8163H391.389L380.446 29.2481H378.247L373.389 35.1288ZM365.872 41.9981V7.08902H374.207V41.9981H365.872ZM382.133 41.9981L375.281 31.1231L380.769 25.2083L391.764 41.9981H382.133Z" fill="#1E293B"/>
<defs>
<linearGradient id="paint0_linear_37_1167" x1="19.9985" y1="-1.52768" x2="19.9985" y2="49.4129" gradientUnits="userSpaceOnUse">
<stop stop-color="#F5F5F5"/>
<stop offset="1" stop-color="#E0E0E0"/>
</linearGradient>
<linearGradient id="paint1_linear_37_1167" x1="21.073" y1="10.4442" x2="21.073" y2="40.7136" gradientUnits="userSpaceOnUse">
<stop offset="0.006854" stop-color="#FFECB3"/>
<stop offset="1" stop-color="#FFE082"/>
</linearGradient>
<linearGradient id="paint2_linear_37_1167" x1="16.6525" y1="28.2712" x2="16.6525" y2="41.2552" gradientUnits="userSpaceOnUse">
<stop stop-color="#757575"/>
<stop offset="1" stop-color="#424242"/>
</linearGradient>
<linearGradient id="paint3_linear_37_1167" x1="40.6383" y1="7.52021" x2="40.6383" y2="20.6621" gradientUnits="userSpaceOnUse">
<stop stop-color="#E0E0E0"/>
<stop offset="1" stop-color="#9E9E9E"/>
</linearGradient>
<linearGradient id="paint4_linear_37_1167" x1="44.022" y1="3.21726" x2="44.022" y2="15.8363" gradientUnits="userSpaceOnUse">
<stop stop-color="#E57373"/>
<stop offset="1" stop-color="#F44336"/>
</linearGradient>
<linearGradient id="paint5_linear_37_1167" x1="31.3276" y1="8.71679" x2="31.3276" y2="31.5792" gradientUnits="userSpaceOnUse">
<stop stop-color="#FFC107"/>
<stop offset="1" stop-color="#FFA000"/>
</linearGradient>
<linearGradient id="paint6_linear_37_1167" x1="44.3455" y1="16.1242" x2="28.8983" y2="31.5714" gradientUnits="userSpaceOnUse">
<stop stop-color="#FFCA28"/>
<stop offset="1" stop-color="#FFB300"/>
</linearGradient>
<linearGradient id="paint7_linear_37_1167" x1="38.873" y1="10.651" x2="23.4258" y2="26.0982" gradientUnits="userSpaceOnUse">
<stop stop-color="#FFCA28"/>
<stop offset="1" stop-color="#FFB300"/>
</linearGradient>
</defs>
</svg>
